<?xml version="1.0" encoding="UTF-8" standalone="no"?>
<!DOCTYPE svg PUBLIC "-//W3C//DTD SVG 1.1//EN"
 "http://www.w3.org/Graphics/SVG/1.1/DTD/svg11.dtd">
<!-- Generated by graphviz version 2.40.1 (20161225.0304)
 -->
<!-- Title: g Pages: 1 -->
<svg width="852pt" height="276pt"
 viewBox="0.00 0.00 851.58 276.00" xmlns="http://www.w3.org/2000/svg" xmlns:xlink="http://www.w3.org/1999/xlink">
<g id="graph0" class="graph" transform="scale(1 1) rotate(0) translate(4 272)">
<title>g</title>
<polygon fill="#ffffff" stroke="transparent" points="-4,4 -4,-272 847.5782,-272 847.5782,4 -4,4"/>
<!-- page00 -->
<g id="node1" class="node">
<title>page00</title>
<text text-anchor="start" x="211.3859" y="-251.4" font-family="Courier,monospace" font-weight="bold" font-size="14.00" fill="#000000">Corridor C0</text>
<polygon fill="none" stroke="#000000" points="201.5782,-218 201.5782,-244 236.5782,-244 236.5782,-218 201.5782,-218"/>
<text text-anchor="start" x="210.6796" y="-226.4" font-family="Courier,monospace" font-weight="bold" font-size="14.00" fill="#000000">D0</text>
<polygon fill="#dddddd" stroke="transparent" points="236.5782,-218 236.5782,-244 313.5782,-244 313.5782,-218 236.5782,-218"/>
<polygon fill="none" stroke="#000000" points="236.5782,-218 236.5782,-244 313.5782,-244 313.5782,-218 236.5782,-218"/>
<text text-anchor="start" x="241.4838" y="-226.4" font-family="Courier,monospace" font-weight="bold" font-size="14.00" fill="#000000"> &#160;&#160;None </text>
<polygon fill="none" stroke="#000000" points="201.5782,-192 201.5782,-218 236.5782,-218 236.5782,-192 201.5782,-192"/>
<text text-anchor="start" x="210.6796" y="-200.4" font-family="Courier,monospace" font-weight="bold" font-size="14.00" fill="#000000">D1</text>
<polygon fill="#dddddd" stroke="transparent" points="236.5782,-192 236.5782,-218 313.5782,-218 313.5782,-192 236.5782,-192"/>
<polygon fill="none" stroke="#000000" points="236.5782,-192 236.5782,-218 313.5782,-218 313.5782,-192 236.5782,-192"/>
<text text-anchor="start" x="241.4838" y="-200.4" font-family="Courier,monospace" font-weight="bold" font-size="14.00" fill="#000000"> &#160;&#160;None </text>
<polygon fill="#dddddd" stroke="transparent" points="201.5782,-122 201.5782,-192 313.5782,-192 313.5782,-122 201.5782,-122"/>
<polygon fill="none" stroke="#000000" points="201.5782,-122 201.5782,-192 313.5782,-192 313.5782,-122 201.5782,-122"/>
<text text-anchor="start" x="244.9803" y="-152.8" font-family="Courier,monospace" font-weight="bold" font-size="14.00" fill="#000000">...</text>
<polygon fill="none" stroke="#000000" points="201.5782,-96 201.5782,-122 236.5782,-122 236.5782,-96 201.5782,-96"/>
<text text-anchor="start" x="210.6796" y="-104.4" font-family="Courier,monospace" font-weight="bold" font-size="14.00" fill="#000000">D8</text>
<polygon fill="#ff00ff" stroke="transparent" points="236.5782,-96 236.5782,-122 313.5782,-122 313.5782,-96 236.5782,-96"/>
<polygon fill="none" stroke="#000000" points="236.5782,-96 236.5782,-122 313.5782,-122 313.5782,-96 236.5782,-96"/>
<text text-anchor="start" x="245.6831" y="-104.4" font-family="Courier,monospace" font-weight="bold" font-size="14.00" fill="#000000"> &#160;&#160;RW&#45; </text>
<polygon fill="#dddddd" stroke="transparent" points="201.5782,-26 201.5782,-96 313.5782,-96 313.5782,-26 201.5782,-26"/>
<polygon fill="none" stroke="#000000" points="201.5782,-26 201.5782,-96 313.5782,-96 313.5782,-26 201.5782,-26"/>
<text text-anchor="start" x="244.9803" y="-56.8" font-family="Courier,monospace" font-weight="bold" font-size="14.00" fill="#000000">...</text>
<polygon fill="none" stroke="#000000" points="201.5782,0 201.5782,-26 236.5782,-26 236.5782,0 201.5782,0"/>
<text text-anchor="start" x="206.4803" y="-8.4" font-family="Courier,monospace" font-weight="bold" font-size="14.00" fill="#000000">D15</text>
<polygon fill="#dddddd" stroke="transparent" points="236.5782,0 236.5782,-26 313.5782,-26 313.5782,0 236.5782,0"/>
<polygon fill="none" stroke="#000000" points="236.5782,0 236.5782,-26 313.5782,-26 313.5782,0 236.5782,0"/>
<text text-anchor="start" x="241.4838" y="-8.4" font-family="Courier,monospace" font-weight="bold" font-size="14.00" fill="#000000"> &#160;&#160;None </text>
</g>
<!-- page01 -->
<g id="node2" class="node">
<title>page01</title>
<text text-anchor="start" x="359.3859" y="-251.4" font-family="Courier,monospace" font-weight="bold" font-size="14.00" fill="#000000">Corridor C1</text>
<polygon fill="none" stroke="#000000" points="349.5782,-218 349.5782,-244 384.5782,-244 384.5782,-218 349.5782,-218"/>
<text text-anchor="start" x="358.6796" y="-226.4" font-family="Courier,monospace" font-weight="bold" font-size="14.00" fill="#000000">D0</text>
<polygon fill="#dddddd" stroke="transparent" points="384.5782,-218 384.5782,-244 461.5782,-244 461.5782,-218 384.5782,-218"/>
<polygon fill="none" stroke="#000000" points="384.5782,-218 384.5782,-244 461.5782,-244 461.5782,-218 384.5782,-218"/>
<text text-anchor="start" x="389.4838" y="-226.4" font-family="Courier,monospace" font-weight="bold" font-size="14.00" fill="#000000"> &#160;&#160;None </text>
<polygon fill="#dddddd" stroke="transparent" points="349.5782,-182 349.5782,-218 461.5782,-218 461.5782,-182 349.5782,-182"/>
<polygon fill="none" stroke="#000000" points="349.5782,-182 349.5782,-218 461.5782,-218 461.5782,-182 349.5782,-182"/>
<text text-anchor="start" x="392.9803" y="-195.8" font-family="Courier,monospace" font-weight="bold" font-size="14.00" fill="#000000">...</text>
<polygon fill="none" stroke="#000000" points="349.5782,-156 349.5782,-182 384.5782,-182 384.5782,-156 349.5782,-156"/>
<text text-anchor="start" x="358.6796" y="-164.4" font-family="Courier,monospace" font-weight="bold" font-size="14.00" fill="#000000">D3</text>
<polygon fill="#ff00ff" stroke="transparent" points="384.5782,-156 384.5782,-182 461.5782,-182 461.5782,-156 384.5782,-156"/>
<polygon fill="none" stroke="#000000" points="384.5782,-156 384.5782,-182 461.5782,-182 461.5782,-156 384.5782,-156"/>
<text text-anchor="start" x="393.6831" y="-164.4" font-family="Courier,monospace" font-weight="bold" font-size="14.00" fill="#000000"> &#160;&#160;RW&#45; </text>
<polygon fill="#dddddd" stroke="transparent" points="349.5782,-26 349.5782,-156 461.5782,-156 461.5782,-26 349.5782,-26"/>
<polygon fill="none" stroke="#000000" points="349.5782,-26 349.5782,-156 461.5782,-156 461.5782,-26 349.5782,-26"/>
<text text-anchor="start" x="392.9803" y="-86.8" font-family="Courier,monospace" font-weight="bold" font-size="14.00" fill="#000000">...</text>
<polygon fill="none" stroke="#000000" points="349.5782,0 349.5782,-26 384.5782,-26 384.5782,0 349.5782,0"/>
<text text-anchor="start" x="354.4803" y="-8.4" font-family="Courier,monospace" font-weight="bold" font-size="14.00" fill="#000000">D15</text>
<polygon fill="#dddddd" stroke="transparent" points="384.5782,0 384.5782,-26 461.5782,-26 461.5782,0 384.5782,0"/>
<polygon fill="none" stroke="#000000" points="384.5782,0 384.5782,-26 461.5782,-26 461.5782,0 384.5782,0"/>
<text text-anchor="start" x="389.4838" y="-8.4" font-family="Courier,monospace" font-weight="bold" font-size="14.00" fill="#000000"> &#160;&#160;None </text>
</g>
<!-- page00&#45;&gt;page01 -->
<g id="1" class="edge">
<title>page00:pro&#45;&gt;page01:p01i</title>
<path fill="none" stroke="#000000" d="M313.5782,-109C321.9328,-105.4509 330.5695,-103.5735 339.0523,-102.9845"/>
<polygon fill="#000000" stroke="#000000" points="339.3302,-106.482 349.2937,-102.8794 339.2583,-99.4823 339.3302,-106.482"/>
</g>
<!-- pagep3 -->
<g id="node3" class="node">
<title>pagep3</title>
<text text-anchor="start" x="520.8789" y="-153.4" font-family="Courier,monospace" font-weight="bold" font-size="14.00" fill="#000000"> </text>
<text text-anchor="start" x="512.4803" y="-129.4" font-family="Courier,monospace" font-weight="bold" font-size="14.00" fill="#000000">...</text>
<text text-anchor="start" x="520.8789" y="-105.4" font-family="Courier,monospace" font-weight="bold" font-size="14.00" fill="#000000"> </text>
</g>
<!-- page01&#45;&gt;pagep3 -->
<g id="2" class="edge">
<title>page01:p01o&#45;&gt;pagep3:p3p</title>
<path fill="none" stroke="#000000" d="M461.7077,-134C473.5901,-134 486.2366,-134 498.4486,-134"/>
<polygon fill="#000000" stroke="#000000" points="498.5782,-137.5001 508.5782,-134 498.5782,-130.5001 498.5782,-137.5001"/>
</g>
<!-- page09 -->
<g id="node4" class="node">
<title>page09</title>
<text text-anchor="start" x="597.3859" y="-251.4" font-family="Courier,monospace" font-weight="bold" font-size="14.00" fill="#000000">Corridor C9</text>
<polygon fill="none" stroke="#000000" points="587.5782,-218 587.5782,-244 622.5782,-244 622.5782,-218 587.5782,-218"/>
<text text-anchor="start" x="596.6796" y="-226.4" font-family="Courier,monospace" font-weight="bold" font-size="14.00" fill="#000000">D0</text>
<polygon fill="#dddddd" stroke="transparent" points="622.5782,-218 622.5782,-244 699.5782,-244 699.5782,-218 622.5782,-218"/>
<polygon fill="none" stroke="#000000" points="622.5782,-218 622.5782,-244 699.5782,-244 699.5782,-218 622.5782,-218"/>
<text text-anchor="start" x="627.4838" y="-226.4" font-family="Courier,monospace" font-weight="bold" font-size="14.00" fill="#000000"> &#160;&#160;None </text>
<polygon fill="#dddddd" stroke="transparent" points="587.5782,-78 587.5782,-218 699.5782,-218 699.5782,-78 587.5782,-78"/>
<polygon fill="none" stroke="#000000" points="587.5782,-78 587.5782,-218 699.5782,-218 699.5782,-78 587.5782,-78"/>
<text text-anchor="start" x="630.9803" y="-143.8" font-family="Courier,monospace" font-weight="bold" font-size="14.00" fill="#000000">...</text>
<polygon fill="none" stroke="#000000" points="587.5782,-52 587.5782,-78 622.5782,-78 622.5782,-52 587.5782,-52"/>
<text text-anchor="start" x="592.4803" y="-60.4" font-family="Courier,monospace" font-weight="bold" font-size="14.00" fill="#000000">D10</text>
<polygon fill="#ff00ff" stroke="transparent" points="622.5782,-52 622.5782,-78 699.5782,-78 699.5782,-52 622.5782,-52"/>
<polygon fill="none" stroke="#000000" points="622.5782,-52 622.5782,-78 699.5782,-78 699.5782,-52 622.5782,-52"/>
<text text-anchor="start" x="631.6831" y="-60.4" font-family="Courier,monospace" font-weight="bold" font-size="14.00" fill="#000000"> &#160;&#160;RW&#45; </text>
<polygon fill="#dddddd" stroke="transparent" points="587.5782,-26 587.5782,-52 699.5782,-52 699.5782,-26 587.5782,-26"/>
<polygon fill="none" stroke="#000000" points="587.5782,-26 587.5782,-52 699.5782,-52 699.5782,-26 587.5782,-26"/>
<text text-anchor="start" x="630.9803" y="-34.4" font-family="Courier,monospace" font-weight="bold" font-size="14.00" fill="#000000">...</text>
<polygon fill="none" stroke="#000000" points="587.5782,0 587.5782,-26 622.5782,-26 622.5782,0 587.5782,0"/>
<text text-anchor="start" x="592.4803" y="-8.4" font-family="Courier,monospace" font-weight="bold" font-size="14.00" fill="#000000">D15</text>
<polygon fill="#dddddd" stroke="transparent" points="622.5782,0 622.5782,-26 699.5782,-26 699.5782,0 622.5782,0"/>
<polygon fill="none" stroke="#000000" points="622.5782,0 622.5782,-26 699.5782,-26 699.5782,0 622.5782,0"/>
<text text-anchor="start" x="627.4838" y="-8.4" font-family="Courier,monospace" font-weight="bold" font-size="14.00" fill="#000000"> &#160;&#160;None </text>
</g>
<!-- pagep3&#45;&gt;page09 -->
<g id="3" class="edge">
<title>pagep3:p3p&#45;&gt;page09:p01i</title>
<path fill="none" stroke="#000000" d="M541.5782,-134C553.1993,-129.3857 565.5651,-125.9543 577.5302,-123.7058"/>
<polygon fill="#000000" stroke="#000000" points="578.1508,-127.151 587.4615,-122.0952 577.0302,-120.2412 578.1508,-127.151"/>
</g>
<!-- flag -->
<g id="node5" class="node">
<title>flag</title>
<polygon fill="none" stroke="#000000" stroke-dasharray="5,2" points="831.5782,-153 735.5782,-153 735.5782,-115 831.5782,-115 843.5782,-134 831.5782,-153"/>
<text text-anchor="middle" x="789.5782" y="-129.8" font-family="Courier,monospace" font-weight="bold" font-size="14.00" fill="#000000">&quot;FLAG&quot;</text>
</g>
<!-- page09&#45;&gt;flag -->
<g id="4" class="edge">
<title>page09:pro&#45;&gt;flag</title>
<path fill="none" stroke="#000000" d="M699.5782,-65C731.4922,-53.6028 759.074,-77.0852 775.015,-100.4158"/>
<polygon fill="#000000" stroke="#000000" points="772.0767,-102.3183 780.3477,-108.9395 778.011,-98.6056 772.0767,-102.3183"/>
</g>
<!-- entrypoint -->
<g id="node6" class="node">
<title>entrypoint</title>
<ellipse fill="#000000" stroke="#000000" cx="82.5782" cy="-134" rx="82.6565" ry="29.3315"/>
<text text-anchor="middle" x="82.5782" y="-138.2" font-family="Courier,monospace" font-weight="bold" font-size="14.00" fill="#ffffff">Entry Point&#13;</text>
<text text-anchor="middle" x="82.5782" y="-121.4" font-family="Courier,monospace" font-weight="bold" font-size="14.00" fill="#ffffff">(RDI)</text>
</g>
<!-- entrypoint&#45;&gt;page00 -->
<g id="0" class="edge">
<title>entrypoint&#45;&gt;page00:p01i</title>
<path fill="none" stroke="#000000" d="M110.1552,-162.0611C130.4876,-179.9687 159.9664,-200.5206 191.336,-204.3638"/>
<polygon fill="#000000" stroke="#000000" points="191.3804,-207.8732 201.5782,-205 191.8144,-200.8867 191.3804,-207.8732"/>
</g>
</g>
</svg>
