<?xml version="1.0" encoding="UTF-8" standalone="no"?>
<!DOCTYPE svg PUBLIC "-//W3C//DTD SVG 1.1//EN"
 "http://www.w3.org/Graphics/SVG/1.1/DTD/svg11.dtd">
<!-- Generated by graphviz version 2.40.1 (20161225.0304)
 -->
<!-- Title: g Pages: 1 -->
<svg width="826pt" height="276pt"
 viewBox="0.00 0.00 825.58 276.00" xmlns="http://www.w3.org/2000/svg" xmlns:xlink="http://www.w3.org/1999/xlink">
<g id="graph0" class="graph" transform="scale(1 1) rotate(0) translate(4 272)">
<title>g</title>
<polygon fill="#ffffff" stroke="transparent" points="-4,4 -4,-272 821.5782,-272 821.5782,4 -4,4"/>
<!-- page00 -->
<g id="node1" class="node">
<title>page00</title>
<text text-anchor="start" x="206.8859" y="-251.4" font-family="Courier,monospace" font-weight="bold" font-size="14.00" fill="#000000">Corridor 00</text>
<polygon fill="none" stroke="#000000" points="201.5782,-218 201.5782,-244 227.5782,-244 227.5782,-218 201.5782,-218"/>
<text text-anchor="start" x="206.1796" y="-226.4" font-family="Courier,monospace" font-weight="bold" font-size="14.00" fill="#000000">01</text>
<polygon fill="#dddddd" stroke="transparent" points="227.5782,-218 227.5782,-244 304.5782,-244 304.5782,-218 227.5782,-218"/>
<polygon fill="none" stroke="#000000" points="227.5782,-218 227.5782,-244 304.5782,-244 304.5782,-218 227.5782,-218"/>
<text text-anchor="start" x="232.4838" y="-226.4" font-family="Courier,monospace" font-weight="bold" font-size="14.00" fill="#000000"> &#160;&#160;None </text>
<polygon fill="none" stroke="#000000" points="201.5782,-192 201.5782,-218 227.5782,-218 227.5782,-192 201.5782,-192"/>
<text text-anchor="start" x="206.1796" y="-200.4" font-family="Courier,monospace" font-weight="bold" font-size="14.00" fill="#000000">02</text>
<polygon fill="#dddddd" stroke="transparent" points="227.5782,-192 227.5782,-218 304.5782,-218 304.5782,-192 227.5782,-192"/>
<polygon fill="none" stroke="#000000" points="227.5782,-192 227.5782,-218 304.5782,-218 304.5782,-192 227.5782,-192"/>
<text text-anchor="start" x="232.4838" y="-200.4" font-family="Courier,monospace" font-weight="bold" font-size="14.00" fill="#000000"> &#160;&#160;None </text>
<polygon fill="#dddddd" stroke="transparent" points="201.5782,-122 201.5782,-192 304.5782,-192 304.5782,-122 201.5782,-122"/>
<polygon fill="none" stroke="#000000" points="201.5782,-122 201.5782,-192 304.5782,-192 304.5782,-122 201.5782,-122"/>
<text text-anchor="start" x="240.4803" y="-152.8" font-family="Courier,monospace" font-weight="bold" font-size="14.00" fill="#000000">...</text>
<polygon fill="none" stroke="#000000" points="201.5782,-96 201.5782,-122 227.5782,-122 227.5782,-96 201.5782,-96"/>
<text text-anchor="start" x="206.1796" y="-104.4" font-family="Courier,monospace" font-weight="bold" font-size="14.00" fill="#000000">r0</text>
<polygon fill="#ff00ff" stroke="transparent" points="227.5782,-96 227.5782,-122 304.5782,-122 304.5782,-96 227.5782,-96"/>
<polygon fill="none" stroke="#000000" points="227.5782,-96 227.5782,-122 304.5782,-122 304.5782,-96 227.5782,-96"/>
<text text-anchor="start" x="236.6831" y="-104.4" font-family="Courier,monospace" font-weight="bold" font-size="14.00" fill="#000000"> &#160;&#160;RW&#45; </text>
<polygon fill="#dddddd" stroke="transparent" points="201.5782,-26 201.5782,-96 304.5782,-96 304.5782,-26 201.5782,-26"/>
<polygon fill="none" stroke="#000000" points="201.5782,-26 201.5782,-96 304.5782,-96 304.5782,-26 201.5782,-26"/>
<text text-anchor="start" x="240.4803" y="-56.8" font-family="Courier,monospace" font-weight="bold" font-size="14.00" fill="#000000">...</text>
<polygon fill="none" stroke="#000000" points="201.5782,0 201.5782,-26 227.5782,-26 227.5782,0 201.5782,0"/>
<text text-anchor="start" x="206.1796" y="-8.4" font-family="Courier,monospace" font-weight="bold" font-size="14.00" fill="#000000">15</text>
<polygon fill="#dddddd" stroke="transparent" points="227.5782,0 227.5782,-26 304.5782,-26 304.5782,0 227.5782,0"/>
<polygon fill="none" stroke="#000000" points="227.5782,0 227.5782,-26 304.5782,-26 304.5782,0 227.5782,0"/>
<text text-anchor="start" x="232.4838" y="-8.4" font-family="Courier,monospace" font-weight="bold" font-size="14.00" fill="#000000"> &#160;&#160;None </text>
</g>
<!-- page01 -->
<g id="node2" class="node">
<title>page01</title>
<text text-anchor="start" x="345.8859" y="-251.4" font-family="Courier,monospace" font-weight="bold" font-size="14.00" fill="#000000">Corridor 01</text>
<polygon fill="none" stroke="#000000" points="340.5782,-218 340.5782,-244 366.5782,-244 366.5782,-218 340.5782,-218"/>
<text text-anchor="start" x="345.1796" y="-226.4" font-family="Courier,monospace" font-weight="bold" font-size="14.00" fill="#000000">01</text>
<polygon fill="#dddddd" stroke="transparent" points="366.5782,-218 366.5782,-244 443.5782,-244 443.5782,-218 366.5782,-218"/>
<polygon fill="none" stroke="#000000" points="366.5782,-218 366.5782,-244 443.5782,-244 443.5782,-218 366.5782,-218"/>
<text text-anchor="start" x="371.4838" y="-226.4" font-family="Courier,monospace" font-weight="bold" font-size="14.00" fill="#000000"> &#160;&#160;None </text>
<polygon fill="#dddddd" stroke="transparent" points="340.5782,-182 340.5782,-218 443.5782,-218 443.5782,-182 340.5782,-182"/>
<polygon fill="none" stroke="#000000" points="340.5782,-182 340.5782,-218 443.5782,-218 443.5782,-182 340.5782,-182"/>
<text text-anchor="start" x="379.4803" y="-195.8" font-family="Courier,monospace" font-weight="bold" font-size="14.00" fill="#000000">...</text>
<polygon fill="none" stroke="#000000" points="340.5782,-156 340.5782,-182 366.5782,-182 366.5782,-156 340.5782,-156"/>
<text text-anchor="start" x="345.1796" y="-164.4" font-family="Courier,monospace" font-weight="bold" font-size="14.00" fill="#000000">r1</text>
<polygon fill="#ff00ff" stroke="transparent" points="366.5782,-156 366.5782,-182 443.5782,-182 443.5782,-156 366.5782,-156"/>
<polygon fill="none" stroke="#000000" points="366.5782,-156 366.5782,-182 443.5782,-182 443.5782,-156 366.5782,-156"/>
<text text-anchor="start" x="375.6831" y="-164.4" font-family="Courier,monospace" font-weight="bold" font-size="14.00" fill="#000000"> &#160;&#160;RW&#45; </text>
<polygon fill="#dddddd" stroke="transparent" points="340.5782,-26 340.5782,-156 443.5782,-156 443.5782,-26 340.5782,-26"/>
<polygon fill="none" stroke="#000000" points="340.5782,-26 340.5782,-156 443.5782,-156 443.5782,-26 340.5782,-26"/>
<text text-anchor="start" x="379.4803" y="-86.8" font-family="Courier,monospace" font-weight="bold" font-size="14.00" fill="#000000">...</text>
<polygon fill="none" stroke="#000000" points="340.5782,0 340.5782,-26 366.5782,-26 366.5782,0 340.5782,0"/>
<text text-anchor="start" x="345.1796" y="-8.4" font-family="Courier,monospace" font-weight="bold" font-size="14.00" fill="#000000">15</text>
<polygon fill="#dddddd" stroke="transparent" points="366.5782,0 366.5782,-26 443.5782,-26 443.5782,0 366.5782,0"/>
<polygon fill="none" stroke="#000000" points="366.5782,0 366.5782,-26 443.5782,-26 443.5782,0 366.5782,0"/>
<text text-anchor="start" x="371.4838" y="-8.4" font-family="Courier,monospace" font-weight="bold" font-size="14.00" fill="#000000"> &#160;&#160;None </text>
</g>
<!-- page00&#45;&gt;page01 -->
<g id="1" class="edge">
<title>page00:pro&#45;&gt;page01:p01i</title>
<path fill="none" stroke="#000000" d="M304.0782,-109C356.6956,-109 294.1074,-214.4469 330.524,-229.2754"/>
<polygon fill="#000000" stroke="#000000" points="330.1304,-232.7589 340.5782,-231 331.3139,-225.8597 330.1304,-232.7589"/>
</g>
<!-- pagep3 -->
<g id="node3" class="node">
<title>pagep3</title>
<text text-anchor="start" x="502.8789" y="-153.4" font-family="Courier,monospace" font-weight="bold" font-size="14.00" fill="#000000"> </text>
<text text-anchor="start" x="494.4803" y="-129.4" font-family="Courier,monospace" font-weight="bold" font-size="14.00" fill="#000000">...</text>
<text text-anchor="start" x="502.8789" y="-105.4" font-family="Courier,monospace" font-weight="bold" font-size="14.00" fill="#000000"> </text>
</g>
<!-- page01&#45;&gt;pagep3 -->
<g id="2" class="edge">
<title>page01:p01o&#45;&gt;pagep3:p3p</title>
<path fill="none" stroke="#000000" d="M443.0782,-231C487.1431,-231 449.8841,-149.2613 480.6068,-135.8511"/>
<polygon fill="#000000" stroke="#000000" points="481.385,-139.2665 490.5782,-134 480.1073,-132.3841 481.385,-139.2665"/>
</g>
<!-- page09 -->
<g id="node4" class="node">
<title>page09</title>
<text text-anchor="start" x="575.8859" y="-251.4" font-family="Courier,monospace" font-weight="bold" font-size="14.00" fill="#000000">Corridor 09</text>
<polygon fill="none" stroke="#000000" points="570.5782,-218 570.5782,-244 596.5782,-244 596.5782,-218 570.5782,-218"/>
<text text-anchor="start" x="575.1796" y="-226.4" font-family="Courier,monospace" font-weight="bold" font-size="14.00" fill="#000000">01</text>
<polygon fill="#dddddd" stroke="transparent" points="596.5782,-218 596.5782,-244 673.5782,-244 673.5782,-218 596.5782,-218"/>
<polygon fill="none" stroke="#000000" points="596.5782,-218 596.5782,-244 673.5782,-244 673.5782,-218 596.5782,-218"/>
<text text-anchor="start" x="601.4838" y="-226.4" font-family="Courier,monospace" font-weight="bold" font-size="14.00" fill="#000000"> &#160;&#160;None </text>
<polygon fill="#dddddd" stroke="transparent" points="570.5782,-78 570.5782,-218 673.5782,-218 673.5782,-78 570.5782,-78"/>
<polygon fill="none" stroke="#000000" points="570.5782,-78 570.5782,-218 673.5782,-218 673.5782,-78 570.5782,-78"/>
<text text-anchor="start" x="609.4803" y="-143.8" font-family="Courier,monospace" font-weight="bold" font-size="14.00" fill="#000000">...</text>
<polygon fill="none" stroke="#000000" points="570.5782,-52 570.5782,-78 596.5782,-78 596.5782,-52 570.5782,-52"/>
<text text-anchor="start" x="575.1796" y="-60.4" font-family="Courier,monospace" font-weight="bold" font-size="14.00" fill="#000000">r9</text>
<polygon fill="#ff00ff" stroke="transparent" points="596.5782,-52 596.5782,-78 673.5782,-78 673.5782,-52 596.5782,-52"/>
<polygon fill="none" stroke="#000000" points="596.5782,-52 596.5782,-78 673.5782,-78 673.5782,-52 596.5782,-52"/>
<text text-anchor="start" x="605.6831" y="-60.4" font-family="Courier,monospace" font-weight="bold" font-size="14.00" fill="#000000"> &#160;&#160;RW&#45; </text>
<polygon fill="#dddddd" stroke="transparent" points="570.5782,-26 570.5782,-52 673.5782,-52 673.5782,-26 570.5782,-26"/>
<polygon fill="none" stroke="#000000" points="570.5782,-26 570.5782,-52 673.5782,-52 673.5782,-26 570.5782,-26"/>
<text text-anchor="start" x="609.4803" y="-34.4" font-family="Courier,monospace" font-weight="bold" font-size="14.00" fill="#000000">...</text>
<polygon fill="none" stroke="#000000" points="570.5782,0 570.5782,-26 596.5782,-26 596.5782,0 570.5782,0"/>
<text text-anchor="start" x="575.1796" y="-8.4" font-family="Courier,monospace" font-weight="bold" font-size="14.00" fill="#000000">15</text>
<polygon fill="#dddddd" stroke="transparent" points="596.5782,0 596.5782,-26 673.5782,-26 673.5782,0 596.5782,0"/>
<polygon fill="none" stroke="#000000" points="596.5782,0 596.5782,-26 673.5782,-26 673.5782,0 596.5782,0"/>
<text text-anchor="start" x="601.4838" y="-8.4" font-family="Courier,monospace" font-weight="bold" font-size="14.00" fill="#000000"> &#160;&#160;None </text>
</g>
<!-- pagep3&#45;&gt;page09 -->
<g id="3" class="edge">
<title>pagep3:p3p&#45;&gt;page09:p01i</title>
<path fill="none" stroke="#000000" d="M523.5782,-134C567.5537,-134 530.0301,-215.7387 560.6347,-229.1489"/>
<polygon fill="#000000" stroke="#000000" points="560.1065,-232.6106 570.5782,-231 561.3877,-225.7289 560.1065,-232.6106"/>
</g>
<!-- flag -->
<g id="node5" class="node">
<title>flag</title>
<polygon fill="none" stroke="#000000" stroke-dasharray="5,2" points="805.5782,-153 709.5782,-153 709.5782,-115 805.5782,-115 817.5782,-134 805.5782,-153"/>
<text text-anchor="middle" x="763.5782" y="-129.8" font-family="Courier,monospace" font-weight="bold" font-size="14.00" fill="#000000">&quot;FLAG&quot;</text>
</g>
<!-- page09&#45;&gt;flag -->
<g id="4" class="edge">
<title>page09:pro&#45;&gt;flag</title>
<path fill="none" stroke="#000000" d="M673.0782,-65C705.104,-53.6028 732.8565,-77.0852 748.9076,-100.4158"/>
<polygon fill="#000000" stroke="#000000" points="745.986,-102.3445 754.278,-108.9395 751.9085,-98.613 745.986,-102.3445"/>
</g>
<!-- entrypoint -->
<g id="node6" class="node">
<title>entrypoint</title>
<ellipse fill="#000000" stroke="#000000" cx="82.5782" cy="-134" rx="82.6565" ry="29.3315"/>
<text text-anchor="middle" x="82.5782" y="-138.2" font-family="Courier,monospace" font-weight="bold" font-size="14.00" fill="#ffffff">Entry Point&#13;</text>
<text text-anchor="middle" x="82.5782" y="-121.4" font-family="Courier,monospace" font-weight="bold" font-size="14.00" fill="#ffffff">(RDI)</text>
</g>
<!-- entrypoint&#45;&gt;page00 -->
<g id="0" class="edge">
<title>entrypoint&#45;&gt;page00:p01i</title>
<path fill="none" stroke="#000000" d="M100.8912,-162.8406C119.9318,-189.1997 152.3999,-224.8847 191.499,-230.2996"/>
<polygon fill="#000000" stroke="#000000" points="191.3596,-233.7983 201.5782,-231 191.8449,-226.8151 191.3596,-233.7983"/>
</g>
</g>
</svg>
